<svg width="43" height="61" viewBox="0 0 43 61" fill="none" xmlns="http://www.w3.org/2000/svg">
<path d="M21.021 60.2152V52.0752C9.43101 52.0752 6.19979e-06 42.3352 6.19979e-06 30.3752C-0.00305161 26.2953 1.12506 22.2945 3.25901 18.8172L7.10001 22.7772C5.882 25.1248 5.25067 27.7324 5.26001 30.3772C5.19874 34.6234 6.82324 38.7208 9.77754 41.7714C12.7318 44.8221 16.775 46.5772 21.021 46.6522V38.5132L31.532 49.3632L21.026 60.2102L21.021 60.2152ZM38.786 41.9302L34.952 37.9732C36.1675 35.6269 36.7981 33.0216 36.79 30.3792C36.8531 26.1303 35.2284 22.0298 32.2722 18.9772C29.316 15.9247 25.2697 14.1693 21.021 14.0962V22.2352L10.511 11.3852L21.021 0.535156V8.67216C32.611 8.67216 42.042 18.4092 42.042 30.3722C42.0444 34.4495 40.9178 38.4479 38.787 41.9242L38.786 41.9302Z" fill="white"/>
</svg>
