<svg width="49" height="49" viewBox="0 0 49 49" fill="none" xmlns="http://www.w3.org/2000/svg">
<path d="M24.008 48.7719C19.2597 48.7719 14.618 47.3638 10.6699 44.7258C6.72178 42.0878 3.64462 38.3382 1.82751 33.9513C0.0104023 29.5644 -0.465036 24.7372 0.461318 20.0801C1.38767 15.423 3.67421 11.1452 7.03179 7.78765C10.3894 4.43007 14.6672 2.14353 19.3243 1.21718C23.9814 0.290823 28.8086 0.766262 33.1955 2.58337C37.5824 4.40048 41.3319 7.47764 43.9699 11.4257C46.608 15.3738 48.016 20.0155 48.016 24.7639C48.0089 31.129 45.4772 37.2314 40.9763 41.7322C36.4755 46.233 30.3731 48.7647 24.008 48.7719ZM24.032 5.55587C20.2333 5.55587 16.5198 6.68232 13.3613 8.79276C10.2027 10.9032 7.74091 13.9029 6.28715 17.4124C4.83339 20.922 4.45297 24.7838 5.19399 28.5096C5.93502 32.2354 7.76421 35.6577 10.4503 38.3439C13.1363 41.0301 16.5586 42.8595 20.2843 43.6007C24.01 44.3419 27.8719 43.9617 31.3815 42.5081C34.8912 41.0545 37.891 38.5929 40.0016 35.4344C42.1122 32.276 43.2388 28.5626 43.239 24.7639C43.2335 19.6715 41.2081 14.7892 37.6073 11.1883C34.0066 7.58729 29.1244 5.56169 24.032 5.55587ZM34.232 34.7239L21.632 27.1629V12.7559H25.232V25.3559L36.032 31.7669L34.232 34.7159V34.7239Z" fill="white"/>
</svg>
