<svg width="48" height="48" viewBox="0 0 48 48" fill="none" xmlns="http://www.w3.org/2000/svg">
<path d="M42.667 48H32V42.667H42.667V32H48V42.667C47.9984 44.0809 47.436 45.4365 46.4362 46.4362C45.4365 47.436 44.0809 47.9984 42.667 48ZM16 48H5.334C3.91991 47.9987 2.56411 47.4364 1.56411 46.4366C0.564104 45.4368 0.00158854 44.0811 0 42.667L0 32H5.334V42.667H16V48ZM24 31.742C22.4688 31.742 20.9719 31.2879 19.6988 30.4372C18.4256 29.5865 17.4333 28.3774 16.8473 26.9627C16.2614 25.5481 16.108 23.9914 16.4068 22.4896C16.7055 20.9878 17.4428 19.6083 18.5256 18.5256C19.6083 17.4428 20.9878 16.7055 22.4896 16.4068C23.9914 16.108 25.5481 16.2614 26.9627 16.8473C28.3774 17.4333 29.5865 18.4256 30.4372 19.6988C31.2879 20.9719 31.742 22.4688 31.742 24C31.7399 26.0527 30.9235 28.0206 29.4721 29.4721C28.0206 30.9235 26.0527 31.7399 24 31.742ZM48 16H42.667V5.333H32V0H42.667C44.0809 0.00158807 45.4365 0.563966 46.4362 1.56375C47.436 2.56354 47.9984 3.91909 48 5.333V16ZM5.334 16H0V5.333C0.00158854 3.91892 0.564104 2.56322 1.56411 1.5634C2.56411 0.563585 3.91991 0.00132341 5.334 0L16 0V5.333H5.334V16Z" fill="white"/>
</svg>
