<svg width="47" height="50" viewBox="0 0 47 50" fill="none" xmlns="http://www.w3.org/2000/svg">
<path d="M28.2342 49.1191H18.6062C18.3203 49.1227 18.043 49.022 17.826 48.836C17.609 48.6499 17.4672 48.3912 17.4272 48.1081L16.5122 41.7301C15.0577 41.128 13.69 40.3347 12.4452 39.3711L6.45115 41.7781C6.32044 41.8272 6.18176 41.8516 6.04215 41.8501C5.8283 41.8529 5.61756 41.7988 5.43148 41.6934C5.24541 41.588 5.09069 41.435 4.98315 41.2501L0.168152 32.9191C0.025977 32.6697 -0.0230115 32.3778 0.0299155 32.0956C0.0828426 31.8134 0.234247 31.5591 0.457152 31.3781L5.53615 27.4081C5.43094 26.6261 5.3745 25.8382 5.36715 25.0491C5.37443 24.2601 5.43087 23.4722 5.53615 22.6901L0.457152 18.7171C0.228969 18.5404 0.0735198 18.2862 0.0202563 18.0025C-0.0330071 17.7189 0.0196147 17.4256 0.168152 17.1781L4.98215 8.84914C5.0861 8.66645 5.23669 8.51463 5.41854 8.40921C5.60038 8.3038 5.80696 8.24856 6.01715 8.24914C6.16443 8.24957 6.31066 8.27389 6.45015 8.32114L12.4432 10.7281C13.6925 9.77127 15.0593 8.97848 16.5102 8.36914L17.4252 1.99114C17.4648 1.70741 17.6067 1.44793 17.8242 1.26141C18.0416 1.07489 18.3197 0.974161 18.6062 0.978141H28.2342C28.52 0.974587 28.7973 1.07526 29.0143 1.26132C29.2313 1.44739 29.3731 1.70612 29.4132 1.98914L30.3282 8.36714C31.7844 8.96914 33.1539 9.76282 34.4002 10.7271L40.3932 8.32014C40.5238 8.27081 40.6625 8.24639 40.8022 8.24814C41.0161 8.2455 41.2269 8.29963 41.4132 8.40504C41.5994 8.51044 41.7543 8.66334 41.8622 8.84814L46.6712 17.1781C46.8134 17.4273 46.8625 17.719 46.8097 18.001C46.757 18.283 46.6058 18.5372 46.3832 18.7181L41.3002 22.6891C41.4054 23.4712 41.4618 24.2591 41.4692 25.0481C41.4619 25.8376 41.4055 26.6257 41.3002 27.4081L46.3832 31.3781C46.6058 31.5591 46.757 31.8133 46.8097 32.0953C46.8625 32.3773 46.8134 32.6689 46.6712 32.9181L41.8582 41.2481C41.7541 41.4308 41.6035 41.5825 41.4217 41.6879C41.2399 41.7933 41.0333 41.8486 40.8232 41.8481C40.6756 41.8477 40.529 41.8234 40.3892 41.7761L34.4002 39.3701C33.1512 40.3275 31.7843 41.1204 30.3332 41.7291L29.4182 48.1071C29.3782 48.3912 29.2358 48.6509 29.0177 48.8373C28.7996 49.0236 28.521 49.1239 28.2342 49.1191ZM12.0632 34.8781L14.4952 36.7481C15.5071 37.5164 16.6114 38.1547 17.7822 38.6481L20.6142 39.7971L21.0422 42.8171L21.5492 46.4251H25.2902L25.8252 42.8171L26.2532 39.7971L29.0852 38.6481C30.2751 38.1393 31.3971 37.4843 32.4252 36.6981L34.8252 34.8811L37.6042 36.0041L41.0002 37.3661L42.8712 34.1331L39.9852 31.8891L37.6082 30.0181L37.9822 26.9981C38.0582 26.2441 38.1162 25.6221 38.1162 25.0481C38.116 24.3955 38.0712 23.7437 37.9822 23.0971L37.6082 20.0771L39.9862 18.2081L42.8452 15.9361L40.9752 12.7031L37.5812 14.0661L34.7502 15.2151L32.3182 13.3451C31.3064 12.5766 30.2021 11.9383 29.0312 11.4451L26.2002 10.2991L25.7712 7.27814L25.2642 3.67014H21.5492L21.0152 7.27814L20.5872 10.2981L17.7552 11.4461C16.5653 11.9557 15.4434 12.611 14.4152 13.3971L12.0152 15.2131L9.23215 14.0921L5.83815 12.7301L3.96815 15.9631L6.85315 18.2081L9.23215 20.0781L8.85815 23.0981C8.77315 23.9411 8.72415 24.5301 8.72415 25.0491C8.72415 25.6061 8.78215 26.2491 8.85815 27.0261L9.23215 30.0461L6.85315 31.9161L3.96815 34.1601L5.83915 37.3931L9.23215 36.0301L12.0632 34.8781ZM23.4202 34.6781C21.1927 34.6782 19.0341 33.9058 17.3122 32.4927C15.5903 31.0796 14.4117 29.1132 13.9771 26.9285C13.5425 24.7438 13.8789 22.476 14.9289 20.5116C15.979 18.5471 17.6777 17.0075 19.7356 16.155C21.7935 15.3026 24.0834 15.1901 26.2149 15.8367C28.3465 16.4833 30.1879 17.849 31.4255 19.7011C32.663 21.5532 33.2201 23.7771 33.0017 25.9938C32.7834 28.2106 31.8032 30.2831 30.2282 31.8581C29.3362 32.755 28.2752 33.466 27.1066 33.9501C25.938 34.4341 24.685 34.6816 23.4202 34.6781ZM23.4202 19.4581C22.3142 19.4581 21.233 19.7861 20.3134 20.4006C19.3938 21.015 18.6771 21.8884 18.2538 22.9102C17.8306 23.932 17.7198 25.0563 17.9356 26.1411C18.1514 27.2258 18.684 28.2222 19.466 29.0043C20.2481 29.7863 21.2445 30.3189 22.3292 30.5347C23.4139 30.7505 24.5383 30.6397 25.5601 30.2165C26.5819 29.7932 27.4553 29.0765 28.0697 28.1569C28.6842 27.2373 29.0122 26.1561 29.0122 25.0501C29.0103 23.5675 28.4206 22.1462 27.3723 21.0977C26.324 20.0492 24.9028 19.4603 23.4202 19.4581Z" fill="white"/>
</svg>
