<svg width="13" height="50" viewBox="0 0 13 50" fill="none" xmlns="http://www.w3.org/2000/svg">
<path d="M7.00009 48.9999C5.78339 49.025 4.58677 48.687 3.5629 48.0292C2.53902 47.3715 1.73427 46.4236 1.25125 45.3066C0.768239 44.1896 0.628891 42.954 0.850923 41.7575C1.07295 40.561 1.64635 39.4577 2.49796 38.5883C3.34956 37.719 4.44077 37.1231 5.63248 36.8764C6.82418 36.6297 8.06233 36.7437 9.18906 37.2036C10.3158 37.6634 11.28 38.4483 11.9588 39.4584C12.6375 40.4685 13 41.658 13.0001 42.8749C13.0145 44.4822 12.391 46.0295 11.2662 47.1777C10.1415 48.3259 8.60728 48.9812 7.00009 48.9999ZM7.00009 30.6259C5.78307 30.6511 4.58613 30.3133 3.56192 29.6555C2.53771 28.9976 1.73261 28.0496 1.24942 26.9323C0.766235 25.815 0.626853 24.5791 0.84897 23.3823C1.07109 22.1854 1.64465 21.0819 2.49655 20.2123C3.34846 19.3428 4.44005 18.7467 5.63211 18.5002C6.82417 18.2536 8.06268 18.3678 9.18961 18.8281C10.3165 19.2883 11.2808 20.0739 11.9595 21.0844C12.6382 22.095 13.0004 23.2846 13.0001 24.5019C13.0142 26.109 12.3906 27.6562 11.2658 28.8041C10.1411 29.9521 8.60711 30.6072 7.00009 30.6259ZM7.00009 12.2499C5.78339 12.275 4.58677 11.937 3.5629 11.2792C2.53902 10.6215 1.73427 9.67358 1.25125 8.55658C0.768239 7.43958 0.628891 6.20404 0.850923 5.00751C1.07295 3.81097 1.64635 2.70766 2.49796 1.83832C3.34956 0.968969 4.44077 0.373056 5.63248 0.126402C6.82418 -0.120251 8.06233 -0.00633165 9.18906 0.453551C10.3158 0.913434 11.28 1.69834 11.9588 2.70843C12.6375 3.71853 13 4.90798 13.0001 6.12494C13.0145 7.73217 12.391 9.27949 11.2662 10.4277C10.1415 11.5759 8.60728 12.2312 7.00009 12.2499Z" fill="white"/>
</svg>
