<svg width="125" height="125" viewBox="0 0 125 125" fill="none" xmlns="http://www.w3.org/2000/svg">
<path d="M102 0H21V98H102V0Z" fill="white"/>
<mask id="mask0_1_18" style="mask-type:luminance" maskUnits="userSpaceOnUse" x="0" y="0" width="125" height="125">
<path d="M125 0H0V125H125V0Z" fill="white"/>
</mask>
<g mask="url(#mask0_1_18)">
<path d="M110.441 1.68788e-05H77.308C77.7992 -0.0297392 78.2911 0.0450788 78.7513 0.219527C79.2114 0.393976 79.6293 0.664083 79.9773 1.012C80.3253 1.35992 80.5955 1.77773 80.7701 2.23782C80.9447 2.69791 81.0196 3.18981 80.99 3.68102C81.0196 4.17222 80.9447 4.66412 80.7701 5.12421C80.5955 5.58431 80.3253 6.00211 79.9773 6.35003C79.6293 6.69795 79.2114 6.96806 78.7513 7.14251C78.2911 7.31695 77.7992 7.39177 77.308 7.36202H69.946C69.4548 7.39177 68.9629 7.31695 68.5027 7.14251C68.0426 6.96806 67.6247 6.69795 67.2767 6.35003C66.9287 6.00211 66.6585 5.58431 66.4839 5.12421C66.3093 4.66412 66.2344 4.17222 66.264 3.68102C66.2344 3.18981 66.3093 2.69791 66.4839 2.23782C66.6585 1.77773 66.9287 1.35992 67.2767 1.012C67.6247 0.664083 68.0426 0.393976 68.5027 0.219527C68.9629 0.0450788 69.4548 -0.0297392 69.946 1.68788e-05H14.725C10.8233 0.0116238 7.08464 1.56673 4.32567 4.32569C1.56671 7.08465 0.0116069 10.8233 0 14.725L0 110.44C0.0113445 114.342 1.56637 118.081 4.32538 120.84C7.0844 123.599 10.8232 125.154 14.725 125.165H110.44C114.342 125.154 118.081 123.599 120.84 120.84C123.599 118.081 125.154 114.342 125.165 110.44V14.725C125.154 10.8234 123.599 7.08474 120.84 4.32575C118.081 1.56676 114.343 0.0116251 110.441 1.68788e-05ZM47.857 7.36302H55.22C55.711 7.33356 56.2027 7.40859 56.6626 7.58317C57.1225 7.75775 57.5402 8.0279 57.888 8.37579C58.2357 8.72368 58.5058 9.14138 58.6802 9.60133C58.8547 10.0613 58.9296 10.553 58.9 11.044C58.9296 11.5351 58.8547 12.0269 58.6802 12.487C58.5057 12.947 58.2355 13.3647 57.8876 13.7126C57.5397 14.0605 57.122 14.3307 56.6619 14.5052C56.2019 14.6797 55.7101 14.7546 55.219 14.725H47.857C47.3659 14.7546 46.8741 14.6797 46.4141 14.5052C45.954 14.3307 45.5363 14.0605 45.1884 13.7126C44.8405 13.3647 44.5703 12.947 44.3958 12.487C44.2213 12.0269 44.1464 11.5351 44.176 11.044C44.1464 10.5529 44.2213 10.0611 44.3958 9.60107C44.5703 9.14106 44.8405 8.7233 45.1884 8.3754C45.5363 8.02749 45.954 7.75736 46.4141 7.58285C46.8741 7.40834 47.3659 7.33341 47.857 7.36302ZM47.857 22.088H55.22C55.711 22.0586 56.2027 22.1336 56.6626 22.3082C57.1225 22.4828 57.5402 22.7529 57.888 23.1008C58.2357 23.4487 58.5058 23.8664 58.6802 24.3263C58.8547 24.7863 58.9296 25.278 58.9 25.769C58.9296 26.2601 58.8547 26.7519 58.6802 27.212C58.5057 27.672 58.2355 28.0897 57.8876 28.4376C57.5397 28.7855 57.122 29.0557 56.6619 29.2302C56.2019 29.4047 55.7101 29.4796 55.219 29.45H47.857C47.3659 29.4796 46.8741 29.4047 46.4141 29.2302C45.954 29.0557 45.5363 28.7855 45.1884 28.4376C44.8405 28.0897 44.5703 27.672 44.3958 27.212C44.2213 26.7519 44.1464 26.2601 44.176 25.769C44.1464 25.2779 44.2213 24.7861 44.3958 24.3261C44.5703 23.8661 44.8405 23.4483 45.1884 23.1004C45.5363 22.7525 45.954 22.4824 46.4141 22.3078C46.8741 22.1333 47.3659 22.0584 47.857 22.088ZM47.857 36.813H55.22C55.7111 36.7835 56.2029 36.8586 56.6629 37.0332C57.1229 37.2079 57.5405 37.4781 57.8883 37.8261C58.2362 38.1741 58.5062 38.5919 58.6806 39.052C58.8549 39.5121 58.9297 40.0039 58.9 40.495C58.9296 40.9861 58.8547 41.4779 58.6802 41.938C58.5057 42.398 58.2355 42.8157 57.8876 43.1636C57.5397 43.5115 57.122 43.7817 56.6619 43.9562C56.2019 44.1307 55.7101 44.2056 55.219 44.176H47.857C47.3659 44.2056 46.8741 44.1307 46.4141 43.9562C45.954 43.7817 45.5363 43.5115 45.1884 43.1636C44.8405 42.8157 44.5703 42.398 44.3958 41.938C44.2213 41.4779 44.1464 40.9861 44.176 40.495C44.1462 40.0038 44.2211 39.5119 44.3955 39.0518C44.57 38.5916 44.8401 38.1737 45.188 37.8257C45.5359 37.4777 45.9537 37.2075 46.4138 37.0329C46.8739 36.8583 47.3658 36.7834 47.857 36.813ZM80.99 73.627C80.9787 77.529 79.4235 81.2679 76.6643 84.027C73.905 86.786 70.166 88.3409 66.264 88.352H58.9C54.9984 88.3401 51.2601 86.7849 48.5013 84.026C45.7426 81.2671 44.1876 77.5286 44.176 73.627V51.539H80.99V73.627ZM77.308 36.813H69.946C69.4548 36.8428 68.9629 36.768 68.5027 36.5935C68.0426 36.4191 67.6247 36.1489 67.2767 35.801C66.9287 35.4531 66.6585 35.0353 66.4839 34.5752C66.3093 34.1151 66.2344 33.6232 66.264 33.132C66.2344 32.6408 66.3093 32.1489 66.4839 31.6888C66.6585 31.2287 66.9287 30.8109 67.2767 30.463C67.6247 30.1151 68.0426 29.845 68.5027 29.6705C68.9629 29.4961 69.4548 29.4213 69.946 29.451H77.308C77.7992 29.4213 78.2911 29.4961 78.7513 29.6705C79.2114 29.845 79.6293 30.1151 79.9773 30.463C80.3253 30.8109 80.5955 31.2287 80.7701 31.6888C80.9447 32.1489 81.0196 32.6408 80.99 33.132C81.0196 33.6232 80.9447 34.1151 80.7701 34.5752C80.5955 35.0353 80.3253 35.4531 79.9773 35.801C79.6293 36.1489 79.2114 36.4191 78.7513 36.5935C78.2911 36.768 77.7992 36.8428 77.308 36.813ZM77.308 22.088H69.946C69.4548 22.1178 68.9629 22.043 68.5027 21.8685C68.0426 21.6941 67.6247 21.424 67.2767 21.076C66.9287 20.7281 66.6585 20.3103 66.4839 19.8502C66.3093 19.3901 66.2344 18.8982 66.264 18.407C66.2344 17.9158 66.3093 17.4239 66.4839 16.9638C66.6585 16.5037 66.9287 16.0859 67.2767 15.738C67.6247 15.3901 68.0426 15.12 68.5027 14.9455C68.9629 14.7711 69.4548 14.6963 69.946 14.726H77.308C77.7992 14.6963 78.2911 14.7711 78.7513 14.9455C79.2114 15.12 79.6293 15.3901 79.9773 15.738C80.3253 16.0859 80.5955 16.5037 80.7701 16.9638C80.9447 17.4239 81.0196 17.9158 80.99 18.407C81.0196 18.8982 80.9447 19.3901 80.7701 19.8502C80.5955 20.3103 80.3253 20.7281 79.9773 21.076C79.6293 21.424 79.2114 21.6941 78.7513 21.8685C78.2911 22.043 77.7992 22.1178 77.308 22.088Z" fill="#FF650F"/>
</g>
</svg>
