<svg xmlns="http://www.w3.org/2000/svg" width="53" height="42" viewBox="0 0 53 42" fill="none">
    <path d="M52.5 5.25V36.75C52.496 38.1412 51.9417 39.4742 50.9579 40.4579C49.9742 41.4416 48.6412 41.996 47.25 42H5.25C3.85883 41.996 2.52576 41.4416 1.54205 40.4579C0.558344 39.4742 0.00395783 38.1412 0 36.75V5.25C0.00395783 3.85883 0.558344 2.52582 1.54205 1.54211C2.52576 0.558405 3.85883 0.00395783 5.25 0H47.25C48.6412 0.00395783 49.9742 0.558405 50.9579 1.54211C51.9417 2.52582 52.496 3.85883 52.5 5.25Z" fill="white"/>
    <path d="M47 5H5V37H47V5Z" fill="#232323"/>
    <path d="M26.5 21C30.0899 21 33 18.0899 33 14.5C33 10.9101 30.0899 8 26.5 8C22.9101 8 20 10.9101 20 14.5C20 18.0899 22.9101 21 26.5 21Z" fill="white"/>
    <path d="M26.5 17C27.8807 17 29 15.8807 29 14.5C29 13.1193 27.8807 12 26.5 12C25.1193 12 24 13.1193 24 14.5C24 15.8807 25.1193 17 26.5 17Z" fill="#232323"/>
    <path d="M39.376 34.125H13.125V31.473C13.125 25.987 21.814 23.624 26.251 23.624C30.688 23.624 39.376 25.986 39.376 31.473V34.125Z" fill="white"/>
    <path d="M34.651 30.187C33.051 28.822 29.322 27.562 26.251 27.562C23.206 27.562 19.478 28.822 17.877 30.187H34.651Z" fill="#232323"/>
</svg>