<svg width="125" height="125" viewBox="0 0 125 125" fill="none" xmlns="http://www.w3.org/2000/svg">
<path d="M103 20.255H21V94.255H103V20.255Z" fill="white"/>
<path fill-rule="evenodd" clip-rule="evenodd" d="M14.968 0C10.9982 0 7.19107 1.57699 4.38403 4.38403C1.57698 7.19108 0 10.9982 0 14.968L0 109.768C0 113.738 1.57698 117.545 4.38403 120.352C7.19107 123.159 10.9982 124.736 14.968 124.736H109.768C113.738 124.736 117.545 123.159 120.352 120.352C123.159 117.545 124.736 113.738 124.736 109.768V14.968C124.736 10.9982 123.159 7.19108 120.352 4.38403C117.545 1.57699 113.738 0 109.768 0H14.968ZM59.14 70.975C60.1904 71.4619 61.3472 71.6742 62.502 71.592C63.6498 71.6666 64.7995 71.4788 65.864 71.043C66.1736 70.8955 66.4491 70.6852 66.6729 70.4254C66.8967 70.1656 67.064 69.862 67.164 69.534C67.3507 68.8641 67.4429 68.1714 67.438 67.476V65.476C67.8607 65.3427 68.3637 65.1617 68.947 64.933C69.8703 64.5133 70.7643 64.0318 71.623 63.492C72.6642 62.8219 73.6103 62.0147 74.436 61.092C75.3488 60.0113 76.0684 58.7813 76.563 57.456C77.1401 55.8743 77.4191 54.1994 77.386 52.516C77.4352 49.908 76.7453 47.3394 75.396 45.107C74.1029 42.9456 72.2554 41.1693 70.045 39.962C67.626 38.6486 64.9071 37.9865 62.155 38.041C60.2923 38.0035 58.4368 38.2818 56.667 38.864C55.2322 39.3482 53.8877 40.067 52.688 40.991C51.6774 41.729 50.7767 42.6067 50.013 43.598C49.4313 44.3706 48.9259 45.1978 48.504 46.068C48.2219 46.5932 47.9921 47.1448 47.818 47.715C47.5314 48.5775 47.3921 49.4822 47.406 50.391C47.4327 50.7389 47.5319 51.0774 47.6972 51.3846C47.8625 51.6919 48.0904 51.9611 48.366 52.175C49.2362 52.7769 50.1821 53.2614 51.179 53.616C52.0826 54.0236 53.0698 54.2117 54.06 54.165C54.4203 54.0993 54.764 53.9625 55.0708 53.7624C55.3776 53.5624 55.6415 53.3032 55.847 53C56.4246 52.2107 56.8642 51.3293 57.147 50.393C57.3814 49.8814 57.7067 49.4165 58.107 49.021C58.5804 48.5702 59.1404 48.2201 59.753 47.992C60.5195 47.7033 61.3341 47.5634 62.153 47.58C63.7271 47.4547 65.2918 47.918 66.544 48.88C67.0538 49.3736 67.4476 49.9744 67.6968 50.6389C67.946 51.3033 68.0445 52.0148 67.985 52.722C68.0397 53.7162 67.7752 54.7018 67.23 55.535C66.7141 56.2324 66.0602 56.8161 65.309 57.25C64.531 57.6613 63.7077 58.05 62.839 58.416C61.9791 58.776 61.1526 59.211 60.369 59.716C59.5915 60.1731 58.9332 60.8077 58.448 61.568C57.8978 62.4752 57.6346 63.5276 57.693 64.587V67.057C57.6889 67.7953 57.7579 68.5323 57.899 69.257C58.0933 69.9599 58.5337 70.5697 59.14 70.975ZM57.905 85.931C58.6383 86.7977 60.1247 87.231 62.364 87.231C63.742 87.3462 65.1238 87.0604 66.343 86.408C66.714 86.1687 67.0328 85.8569 67.2804 85.4915C67.528 85.126 67.6993 84.7143 67.784 84.281C67.9654 83.4239 68.0573 82.5502 68.058 81.674C68.058 79.616 67.6913 78.1753 66.958 77.352C66.272 76.4853 64.7627 76.052 62.43 76.052C61.052 75.9367 59.6702 76.2225 58.451 76.875C57.7125 77.3683 57.1964 78.131 57.013 79C56.8763 79.8623 56.8074 80.7339 56.807 81.607C56.67 83.1313 57.0574 84.6567 57.905 85.931Z" fill="#BCC0D1"/>
</svg>
