<svg width="125" height="125" viewBox="0 0 125 125" fill="none" xmlns="http://www.w3.org/2000/svg">
<path d="M103 26H21V100H103V26Z" fill="white"/>
<path fill-rule="evenodd" clip-rule="evenodd" d="M14.968 0C10.9983 0 7.19108 1.57698 4.38403 4.38403C1.57699 7.19107 0 10.9982 0 14.968V109.768C0 113.738 1.57699 117.545 4.38403 120.352C7.19108 123.159 10.9983 124.736 14.968 124.736H109.768C113.738 124.736 117.545 123.159 120.352 120.352C123.159 117.545 124.736 113.738 124.736 109.768V14.968C124.736 13.0024 124.349 11.056 123.597 9.23999C122.844 7.42399 121.742 5.77393 120.352 4.38403C118.962 2.99412 117.312 1.89158 115.496 1.13937C113.68 0.387159 111.734 0 109.768 0L14.968 0ZM79.368 86.65C80.3827 86.2255 81.3123 85.6211 82.112 84.866C83.6667 83.5393 84.4213 82.3503 84.376 81.299C84.376 80.247 83.7357 79.0137 82.455 77.599L69.255 62.183L82.455 46.795C83.5306 45.8415 84.215 44.5234 84.376 43.095C84.4213 41.997 83.6667 40.785 82.112 39.459C81.355 38.6664 80.4445 38.0362 79.436 37.607C79.07 37.4702 78.6795 37.4116 78.2895 37.4352C77.8995 37.4588 77.5188 37.564 77.172 37.744C76.2376 38.2851 75.4214 39.0084 74.772 39.871L62.457 54.251L50.142 39.871C49.4926 39.0084 48.6764 38.285 47.742 37.744C47.3952 37.564 47.0145 37.4588 46.6245 37.4352C46.2345 37.4116 45.844 37.4702 45.478 37.607C44.4696 38.0333 43.5584 38.6604 42.8 39.45C41.2907 40.776 40.536 41.988 40.536 43.086C40.6969 44.5144 41.3813 45.8325 42.457 46.786L55.657 62.174L42.457 77.59C41.1763 79.0073 40.536 80.2407 40.536 81.29C40.536 82.3393 41.2907 83.5283 42.8 84.857C43.5997 85.6121 44.5293 86.2165 45.544 86.641C45.9099 86.7779 46.3006 86.8364 46.6906 86.8129C47.0805 86.7893 47.4612 86.684 47.808 86.504C48.7181 85.9846 49.5121 85.2842 50.141 84.446L62.459 70.1L74.774 84.454C75.4247 85.2718 76.2144 85.9684 77.107 86.512C77.4536 86.6921 77.8341 86.7974 78.2239 86.8211C78.6137 86.8449 79.0041 86.7866 79.37 86.65H79.368Z" fill="#01AC49"/>
</svg>
