<svg width="32" height="32" viewBox="0 0 32 32" fill="none" xmlns="http://www.w3.org/2000/svg">
<path d="M0 32.001L0.0160065 3.20099C0.0159959 2.35506 0.350941 1.54354 0.947601 0.943878C1.54426 0.34422 2.35408 0.0052062 3.2 0.000976562H28.8C29.6487 0.000976563 30.4626 0.338116 31.0627 0.938232C31.6629 1.53835 32 2.3523 32 3.20099V22.401C32 23.2497 31.6629 24.0636 31.0627 24.6637C30.4626 25.2638 29.6487 25.601 28.8 25.601H6.39999L0 32.001ZM3.2 3.20099V24.274L4.129 23.347L5.07201 22.402H28.8V3.20099H3.2ZM20.8 19.201H12.8V16.001H20.8V19.201ZM9.60001 19.201H6.39999V16.001H9.60001V19.201ZM25.6 14.401H12.8V11.201H25.6V14.401ZM9.60001 14.401H6.39999V11.201H9.60001V14.401ZM25.6 9.60098H12.8V6.40097H25.6V9.60098ZM9.60001 9.60098H6.39999V6.40097H9.60001V9.60098Z" fill="#EA3434"/>
</svg>
