<svg width="125" height="125" viewBox="0 0 125 125" fill="none" xmlns="http://www.w3.org/2000/svg">
<path d="M103 25H21V99H103V25Z" fill="white"/>
<path fill-rule="evenodd" clip-rule="evenodd" d="M14.968 0C10.9982 0 7.19108 1.57698 4.38403 4.38403C1.57699 7.19107 0 10.9982 0 14.968V109.768C0 113.738 1.57699 117.545 4.38403 120.352C7.19108 123.159 10.9982 124.736 14.968 124.736H109.768C113.738 124.736 117.545 123.159 120.352 120.352C123.159 117.545 124.736 113.738 124.736 109.768V14.968C124.736 13.0024 124.349 11.056 123.597 9.23999C122.844 7.42399 121.742 5.77393 120.352 4.38403C118.962 2.99412 117.312 1.89158 115.496 1.13937C113.68 0.387159 111.734 0 109.768 0L14.968 0ZM100.6 67.846C101.334 67.1189 101.916 66.2533 102.313 65.2994C102.71 64.3454 102.913 63.3222 102.911 62.289C102.91 61.2517 102.704 60.2249 102.305 59.2673C101.906 58.3096 101.323 57.44 100.588 56.708L84.851 40.973C84.1204 40.2426 83.2531 39.6632 82.2986 39.268C81.344 38.8728 80.321 38.6694 79.2879 38.6696C78.2548 38.6697 77.2319 38.8733 76.2775 39.2688C75.3231 39.6643 74.4559 40.2439 73.7255 40.9745C72.9951 41.7051 72.4157 42.5724 72.0205 43.5269C71.6253 44.4815 71.422 45.5045 71.4221 46.5376C71.4222 47.5707 71.6259 48.5936 72.0213 49.548C72.4168 50.5024 72.9964 51.3696 73.727 52.1L83.9 62.277L73.739 72.456C73.6142 72.5687 73.4953 72.6879 73.383 72.813C72.6759 73.5669 72.1242 74.4526 71.7594 75.4197C71.3946 76.3867 71.2239 77.4162 71.2569 78.4492C71.29 79.4823 71.5262 80.4987 71.9521 81.4405C72.378 82.3822 72.9852 83.2309 73.739 83.938C74.4929 84.6451 75.3786 85.1968 76.3457 85.5616C77.3127 85.9264 78.3422 86.0971 79.3752 86.0641C80.4083 86.031 81.4247 85.7948 82.3665 85.3689C83.3083 84.9431 84.1569 84.3359 84.864 83.582L100.6 67.846ZM39.869 83.581C40.5952 84.3158 41.4606 84.8986 42.4145 85.2954C43.3684 85.6922 44.3918 85.895 45.425 85.892C46.9812 85.8943 48.5032 85.4346 49.798 84.5713C51.0928 83.7079 52.1023 82.4797 52.6985 81.0422C53.2948 79.6047 53.451 78.0225 53.1474 76.4962C52.8438 74.9698 52.094 73.5679 50.993 72.468L40.816 62.29L50.993 52.1C52.4683 50.6249 53.2971 48.6241 53.2972 46.5379C53.2973 44.4516 52.4686 42.4508 50.9935 40.9755C49.5184 39.5002 47.5176 38.6714 45.4314 38.6713C43.3451 38.6712 41.3443 39.4999 39.869 40.975L24.123 56.721C22.6519 58.1992 21.827 60.2005 21.8293 62.286C21.8315 64.3715 22.6607 66.371 24.135 67.846L39.869 83.581Z" fill="#B8C314"/>
</svg>
