
<svg width="30" height="24" viewBox="0 0 30 24" fill="none" xmlns="http://www.w3.org/2000/svg">
<path d="M27 24H3C2.20435 24 1.44129 23.6839 0.878677 23.1213C0.316068 22.5587 0 21.7956 0 21L0.0149994 3C0.0149895 2.20694 0.328998 1.44621 0.888367 0.884033C1.44774 0.321853 2.20695 0.00396529 3 0H12L15 3H27C27.7956 3 28.5587 3.31605 29.1213 3.87866C29.6839 4.44127 30 5.20435 30 6V21C30 21.7956 29.6839 22.5587 29.1213 23.1213C28.5587 23.6839 27.7956 24 27 24ZM3 6V21H27V6H3Z" fill="#EA3434"/>
</svg>
