<svg width="125" height="125" viewBox="0 0 125 125" fill="none" xmlns="http://www.w3.org/2000/svg">
<path d="M103 25H21V99H103V25Z" fill="white"/>
<path fill-rule="evenodd" clip-rule="evenodd" d="M14.968 0C10.9982 0 7.19107 1.57698 4.38403 4.38403C1.57698 7.19107 0 10.9982 0 14.968L0 109.768C0 113.738 1.57698 117.545 4.38403 120.352C7.19107 123.159 10.9982 124.736 14.968 124.736H109.768C113.738 124.736 117.545 123.159 120.352 120.352C123.159 117.545 124.736 113.738 124.736 109.768V14.968C124.736 13.0024 124.349 11.056 123.597 9.23999C122.844 7.42399 121.742 5.77393 120.352 4.38403C118.962 2.99412 117.312 1.89158 115.496 1.13937C113.68 0.387159 111.734 0 109.768 0L14.968 0ZM67.8 80.847C67.6985 79.8646 67.4096 78.9107 66.949 78.037L49.677 42.237C49.3861 41.6439 48.9869 41.1104 48.5 40.664C47.5955 39.81 46.4067 39.3212 45.163 39.292C44.2088 39.3025 43.276 39.5766 42.4678 40.084C41.6595 40.5913 41.0073 41.3122 40.583 42.167L23.374 77.907C22.8701 78.7904 22.558 79.77 22.458 80.782C22.4046 81.5365 22.6382 82.2834 23.112 82.873C23.8304 83.57 24.6747 84.1242 25.6 84.506C27.3447 85.3333 28.675 85.5727 29.591 85.224C30.5503 84.9193 31.4663 83.9173 32.339 82.218L36.1 74.313H54.134L57.918 82.219C58.7467 83.9617 59.6407 84.9853 60.6 85.29C61.5593 85.638 62.9117 85.3983 64.657 84.571C65.5665 84.1664 66.3887 83.5891 67.078 82.871C67.3271 82.5987 67.5192 82.2794 67.6432 81.9318C67.7672 81.5843 67.8205 81.2154 67.8 80.847ZM50.1 65.885L45.1 55.431L40.117 65.885H50.1ZM93.779 84.048C94.864 84.6923 96.1204 84.9886 97.379 84.897C98.5506 84.9923 99.726 84.7665 100.779 84.244C101.108 84.0324 101.389 83.7538 101.603 83.4264C101.817 83.0991 101.96 82.7302 102.022 82.344C102.198 81.5504 102.286 80.7399 102.284 79.927V57.391C102.288 56.5562 102.2 55.7235 102.022 54.908C101.959 54.5227 101.816 54.1548 101.602 53.8283C101.388 53.5019 101.107 53.2241 100.779 53.013C99.7635 52.4454 98.6012 52.195 97.442 52.294C96.1628 52.1982 94.8847 52.4944 93.778 53.143C93.4098 53.4074 93.1188 53.7652 92.935 54.1795C92.7511 54.5938 92.681 55.0496 92.732 55.5L93.255 56.415C92.7576 55.7422 92.1623 55.1477 91.489 54.651C90.6414 53.981 89.6916 53.4516 88.676 53.083C87.3639 52.5712 85.9628 52.3268 84.555 52.364C82.5824 52.3563 80.6346 52.8036 78.863 53.671C77.0441 54.5633 75.403 55.7795 74.02 57.26C72.6077 58.7667 71.4775 60.5148 70.683 62.421C69.8954 64.3504 69.4955 66.416 69.506 68.5C69.4966 70.6231 69.8962 72.7281 70.683 74.7C71.4959 76.6384 72.6234 78.4291 74.02 80C75.3711 81.4894 76.9933 82.7081 78.8 83.591C80.5952 84.4544 82.562 84.9018 84.554 84.9C86.0475 84.9432 87.5354 84.6995 88.937 84.182C89.9683 83.7464 90.9365 83.1747 91.816 82.482C92.3909 82.0116 92.896 81.4617 93.316 80.849L92.662 81.96C92.6654 82.3724 92.7688 82.7779 92.9633 83.1416C93.1579 83.5053 93.4378 83.8163 93.779 84.048ZM89.068 74.313C88.144 74.8814 87.0777 75.1758 85.993 75.162C84.7842 75.1759 83.5916 74.8838 82.526 74.313C81.5458 73.7279 80.7152 72.9226 80.1 71.961C79.5348 70.9655 79.2416 69.8387 79.25 68.694C79.2302 67.5057 79.5234 66.3332 80.1 65.294C80.6873 64.3165 81.4939 63.4891 82.456 62.877C83.4818 62.2609 84.6595 61.944 85.856 61.962C86.9708 61.9559 88.0633 62.2745 89 62.879C89.9595 63.4446 90.7502 64.2567 91.29 65.231C91.8716 66.2435 92.1659 67.3956 92.141 68.563C92.1547 69.7291 91.8612 70.8783 91.29 71.895C90.7784 72.8848 90.0112 73.7197 89.068 74.313Z" fill="#00B2EA"/>
</svg>
