<svg width="23" height="23" viewBox="0 0 23 23" fill="none" xmlns="http://www.w3.org/2000/svg">
<path d="M11.5 23C9.22553 23 7.00211 22.3256 5.11094 21.0619C3.21978 19.7983 1.7458 18.0023 0.875393 15.9009C0.00498492 13.7996 -0.222756 11.4873 0.220974 9.2565C0.664704 7.02571 1.75998 4.97662 3.36828 3.36831C4.97659 1.76001 7.02568 0.664704 9.25647 0.220974C11.4872 -0.222756 13.7995 0.00498492 15.9009 0.875393C18.0022 1.7458 19.7983 3.21982 21.0619 5.11099C22.3255 7.00215 23 9.22554 23 11.5C22.9966 14.549 21.7839 17.472 19.6279 19.628C17.472 21.7839 14.5489 22.9966 11.5 23ZM11.511 2.30001C9.69143 2.30001 7.91269 2.83958 6.39976 3.85049C4.88683 4.8614 3.70764 6.29825 3.01132 7.97934C2.31499 9.66042 2.13279 11.5103 2.48777 13.2949C2.84276 15.0795 3.71898 16.7188 5.00563 18.0054C6.29227 19.292 7.93154 20.1683 9.71617 20.5233C11.5008 20.8783 13.3506 20.696 15.0317 19.9997C16.7128 19.3034 18.1496 18.1242 19.1605 16.6113C20.1714 15.0984 20.711 13.3196 20.711 11.5C20.7081 9.06076 19.7377 6.72226 18.0128 4.99752C16.2879 3.27279 13.9493 2.30266 11.51 2.30001H11.511ZM12.661 17.251H10.361V14.951H12.661V17.251ZM12.661 12.651H10.361V5.751H12.661V12.651Z" fill="#EA3434"/>
</svg>
