<svg width="33" height="33" viewBox="0 0 33 33" fill="none" xmlns="http://www.w3.org/2000/svg">
<path d="M16.0098 32.01C12.8453 32.01 9.75185 31.0716 7.12067 29.3135C4.48948 27.5554 2.43872 25.0566 1.22772 22.1329C0.0167208 19.2093 -0.300163 15.9923 0.3172 12.8886C0.934564 9.78486 2.45841 6.93394 4.69605 4.6963C6.93369 2.45866 9.78461 0.934816 12.8883 0.317452C15.992 -0.299911 19.2091 0.0169423 22.1327 1.22794C25.0563 2.43895 27.5552 4.4897 29.3133 7.12089C31.0714 9.75208 32.0098 12.8455 32.0098 16.01C32.0037 20.2516 30.316 24.3177 27.3168 27.317C24.3175 30.3163 20.2514 32.0039 16.0098 32.01ZM12.9688 22.41C13.6496 24.6697 14.6812 26.8084 16.0258 28.748C17.3698 26.8083 18.401 24.6696 19.0818 22.41H12.9688ZM22.3798 22.41C21.8793 24.393 21.1378 26.3073 20.1718 28.11C23.0921 27.1052 25.5524 25.0816 27.1017 22.41H22.3798ZM4.94977 22.41C6.49575 25.0844 8.9573 27.1091 11.8798 28.11C10.9138 26.3073 10.1723 24.393 9.67175 22.41H4.94977ZM12.2798 12.81C12.1198 13.8694 12.0342 14.9387 12.0237 16.01C12.0365 17.0813 12.1221 18.1504 12.2798 19.21H19.7698C19.9278 18.1504 20.0133 17.0813 20.0258 16.01C20.0153 14.9387 19.9298 13.8694 19.7698 12.81H12.2798ZM23.0027 12.81C23.3022 14.9328 23.3022 17.0872 23.0027 19.21H28.4128C28.9675 17.1127 28.9675 14.9073 28.4128 12.81H23.0027ZM3.63776 12.81C3.08283 14.9073 3.08283 17.1128 3.63776 19.21H9.04779C8.74828 17.0872 8.74828 14.9328 9.04779 12.81H3.63776ZM20.1718 3.91001C21.1378 5.7127 21.8793 7.62695 22.3798 9.60999H27.1017C25.5521 6.93864 23.0919 4.91508 20.1718 3.91001ZM16.0258 3.27C14.6813 5.2093 13.6498 7.34768 12.9688 9.607H19.0818C18.4006 7.34773 17.3701 5.20936 16.0258 3.27ZM11.8798 3.91001C8.95739 4.91109 6.49589 6.93568 4.94977 9.60999H9.67175C10.1722 7.62693 10.9137 5.71268 11.8798 3.91001Z" fill="#EA3434"/>
</svg>
