<svg width="79" height="78" viewBox="0 0 79 78" fill="none" xmlns="http://www.w3.org/2000/svg">
<path d="M70.295 23.494H10.265V55.385H70.295V23.494Z" fill="white"/>
<path fill-rule="evenodd" clip-rule="evenodd" d="M9.62001 0C7.13758 0 4.75683 0.986115 3.00149 2.74146C1.24615 4.4968 0.26001 6.87756 0.26001 9.35999L0.26001 68.64C0.26001 71.1224 1.24615 73.5032 3.00149 75.2585C4.75683 77.0139 7.13758 78 9.62001 78H68.9C71.3824 78 73.7632 77.0139 75.5185 75.2585C77.2739 73.5032 78.26 71.1224 78.26 68.64V9.35999C78.26 6.87756 77.2739 4.4968 75.5185 2.74146C73.7632 0.986115 71.3824 0 68.9 0H9.62001ZM14.593 49.2C15.0759 49.4554 15.6215 49.5682 16.166 49.525C16.7106 49.5682 17.2561 49.4554 17.739 49.2C18.0361 49.0107 18.2488 48.7141 18.333 48.372C18.4127 48.0128 18.4526 47.6459 18.452 47.278V43.41H22.252C23.1123 43.405 23.9656 43.255 24.776 42.966C25.6294 42.6494 26.4224 42.1894 27.121 41.606C27.8628 40.9826 28.4605 40.2057 28.873 39.329C29.346 38.3426 29.58 37.2587 29.556 36.165C29.5819 35.0618 29.3479 33.968 28.873 32.972C28.4606 32.0955 27.8628 31.3189 27.121 30.696C26.4386 30.0827 25.6416 29.6103 24.776 29.306C23.9764 29.0156 23.1327 28.8654 22.282 28.862H16.196C15.6515 28.8188 15.1059 28.9315 14.623 29.187C14.32 29.3838 14.1066 29.692 14.029 30.045C13.9482 30.3938 13.9083 30.7509 13.91 31.109V47.253C13.9093 47.6209 13.9492 47.9878 14.029 48.347C14.1037 48.6918 14.305 48.9962 14.593 49.2ZM22.282 38.911H18.452V33.352H22.252C22.7598 33.3404 23.2616 33.4628 23.707 33.707C24.1288 33.9304 24.4787 34.2688 24.716 34.683C24.9607 35.1257 25.0835 35.6253 25.072 36.131C25.0973 36.698 24.9414 37.2584 24.627 37.731C24.3651 38.1321 23.9943 38.4502 23.558 38.648C23.1553 38.8229 22.7211 38.9137 22.282 38.915V38.911ZM32.189 49.2C32.6519 49.4518 33.1776 49.5646 33.703 49.525H38.988C40.3745 49.5401 41.7491 49.2677 43.025 48.725C44.2438 48.2117 45.3526 47.4689 46.291 46.537C47.2241 45.5866 47.9605 44.4615 48.458 43.226C48.9795 41.9089 49.2416 40.5035 49.23 39.087C49.2437 37.6988 48.9812 36.3218 48.458 35.036C47.9598 33.8184 47.223 32.7127 46.291 31.784C45.3641 30.8594 44.2646 30.1259 43.055 29.625C41.7936 29.1058 40.441 28.8443 39.077 28.856H33.733C33.1905 28.7975 32.6429 28.9019 32.16 29.156C31.857 29.3528 31.6436 29.661 31.566 30.014C31.4852 30.3628 31.4453 30.7199 31.447 31.078V47.251C31.4449 47.6306 31.4947 48.0088 31.595 48.375C31.6946 48.709 31.9038 48.9997 32.189 49.2ZM39.077 45H35.96V33.35H39.048C40.0704 33.3323 41.0778 33.5986 41.958 34.119C42.808 34.6109 43.5064 35.327 43.977 36.189C44.4809 37.1133 44.7366 38.1524 44.719 39.205C44.7391 40.2483 44.4831 41.2784 43.977 42.191C43.4962 43.0633 42.7848 43.7867 41.9206 44.2821C41.0565 44.7775 40.0728 45.0259 39.077 45ZM52.26 49.234C53.2619 49.6285 54.3761 49.6285 55.378 49.234C55.6752 49.0447 55.8879 48.7482 55.972 48.406C56.0517 48.0468 56.0916 47.6799 56.091 47.312V41.073H62.147C62.5054 41.078 62.8634 41.0482 63.216 40.984C63.3653 40.9595 63.508 40.9049 63.6355 40.8235C63.763 40.7422 63.8728 40.6359 63.958 40.511C64.1682 40.0901 64.2605 39.6201 64.225 39.151C64.2622 38.6721 64.17 38.192 63.958 37.761C63.8767 37.6299 63.7685 37.5176 63.6406 37.4315C63.5127 37.3453 63.368 37.2871 63.216 37.261C62.8734 37.1978 62.5254 37.168 62.177 37.172H56.088V33.358H61.934C62.3026 33.3601 62.6706 33.3304 63.034 33.269C63.3874 33.1918 63.6965 32.9793 63.895 32.677C64.1494 32.2067 64.2626 31.673 64.221 31.14C64.2668 30.5865 64.1537 30.0314 63.895 29.54C63.8108 29.3935 63.6956 29.2674 63.5573 29.1703C63.4191 29.0732 63.2613 29.0076 63.095 28.978C62.7342 28.896 62.365 28.856 61.995 28.859H53.895C53.254 28.792 52.6104 28.96 52.084 29.332C51.8883 29.5803 51.7434 29.8649 51.6576 30.1693C51.5718 30.4736 51.5468 30.792 51.584 31.106V47.279C51.5834 47.6455 51.6132 48.0114 51.673 48.373C51.7481 48.7259 51.959 49.0351 52.26 49.234Z" fill="#EA3434"/>
</svg>
