<svg width="24" height="29" viewBox="0 0 24 29" fill="none" xmlns="http://www.w3.org/2000/svg">
<path d="M12 29C5.159 27.35 0 20.549 0 13.182V5.27399L12 0L24 5.27301V13.181C24 20.548 18.841 27.35 12 29ZM12 2.888L2.668 6.98798V13.188C2.6871 16.1194 3.61547 18.9726 5.32501 21.354C6.95376 23.6776 9.298 25.4044 12 26.271C14.7034 25.4029 17.0484 23.6739 18.677 21.348C20.3865 18.9666 21.3149 16.1134 21.334 13.182V6.98199L12 2.88202V2.888ZM9.33401 21.088L4 15.818L5.879 13.96L9.33301 17.36L18.119 8.67297L19.999 10.545L9.33401 21.09V21.088Z" fill="#EA3434"/>
</svg>
