<svg width="125" height="125" viewBox="0 0 125 125" fill="none" xmlns="http://www.w3.org/2000/svg">
<path d="M103 25.53H21V99.53H103V25.53Z" fill="white"/>
<path fill-rule="evenodd" clip-rule="evenodd" d="M14.968 0C10.9983 0 7.19108 1.57698 4.38403 4.38403C1.57699 7.19107 0 10.9982 0 14.968V109.768C0 113.738 1.57699 117.545 4.38403 120.352C7.19108 123.159 10.9983 124.736 14.968 124.736H109.768C113.738 124.735 117.545 123.158 120.351 120.351C123.158 117.544 124.735 113.738 124.736 109.768V14.968C124.735 10.9984 123.158 7.19154 120.351 4.38461C117.545 1.57768 113.738 0.000530305 109.768 0L14.968 0ZM45.859 85.869C47.0066 86.3668 48.2441 86.6236 49.495 86.6236C50.7459 86.6236 51.9834 86.3668 53.131 85.869C53.8181 85.4287 54.3095 84.7408 54.5031 83.948C54.6859 83.1144 54.7777 82.2634 54.777 81.41V72.422H63.559C65.5468 72.4105 67.5183 72.0626 69.39 71.393C71.3631 70.6572 73.1962 69.5898 74.8101 68.237C76.5254 66.7893 77.9065 64.9869 78.858 62.954C79.9522 60.6645 80.4927 58.1499 80.436 55.613C80.4973 53.0539 79.9568 50.5161 78.858 48.204C77.9065 46.1711 76.5254 44.3687 74.8101 42.921C73.2335 41.4997 71.3915 40.404 69.39 39.697C67.5428 39.0241 65.5929 38.6759 63.627 38.668H49.563C48.3038 38.5681 47.0423 38.83 45.927 39.423C45.2264 39.8808 44.7337 40.5954 44.5551 41.413C44.3697 42.2232 44.2777 43.0519 44.281 43.883V81.341C44.2803 82.1944 44.3722 83.0454 44.5551 83.879C44.7241 84.6827 45.1896 85.3932 45.859 85.869ZM63.6281 61.994H54.778V49.1H63.5601C64.7337 49.0734 65.8934 49.3573 66.922 49.923C67.8975 50.4428 68.7062 51.2276 69.255 52.187C69.8209 53.2155 70.1049 54.3754 70.078 55.549C70.1336 56.86 69.7734 58.155 69.049 59.249C68.4437 60.1777 67.5872 60.9153 66.579 61.376C65.6479 61.7815 64.6436 61.9919 63.6281 61.994Z" fill="#FFB900"/>
</svg>
