<svg xmlns="http://www.w3.org/2000/svg" width="43" height="42" viewBox="0 0 43 42" fill="none">
    <path d="M37.601 42H4.70099C3.45929 42.0029 2.26709 41.5131 1.38599 40.6382C0.50488 39.7633 0.00679899 38.5747 0.000976562 37.333V4.66603C0.00653507 3.42426 0.504579 2.23534 1.38574 1.36037C2.26691 0.48539 3.45921 -0.00415213 4.70099 -0.000961059H37.601C38.8427 -0.00415213 40.0351 0.48539 40.9163 1.36037C41.7974 2.23534 42.2954 3.42426 42.301 4.66603V37.333C42.2951 38.5747 41.7971 39.7633 40.916 40.6382C40.0348 41.5131 38.8427 42.0029 37.601 42ZM4.70099 4.66701V37.333H37.601V4.66701H4.70099ZM32.901 32.667H23.501V18.667H32.901V32.667ZM21.151 32.667H9.401V23.333H21.151V32.667ZM21.151 21H9.401V9.33302H21.151V21ZM32.901 16.333H23.501V9.33302H32.901V16.333Z" fill="white"/>
</svg>