<svg xmlns="http://www.w3.org/2000/svg" width="42" height="42" viewBox="0 0 42 42" fill="none">
    <path d="M33.601 42H4.20099C3.08749 41.9987 2.01997 41.5557 1.2326 40.7684C0.445239 39.981 0.0022998 38.9135 0.000976562 37.8V8.40002H4.20099V37.8H33.601V42ZM37.801 33.6H12.601C11.487 33.6 10.4188 33.1575 9.6311 32.3699C8.84345 31.5822 8.401 30.5139 8.401 29.4V4.20001C8.401 3.0861 8.84345 2.01782 9.6311 1.23016C10.4188 0.442511 11.487 0 12.601 0H37.801C38.9145 0.00132324 39.982 0.444262 40.7693 1.23163C41.5567 2.01899 41.9997 3.08651 42.001 4.20001V29.4C41.9997 30.5135 41.5567 31.581 40.7693 32.3684C39.982 33.1558 38.9145 33.5987 37.801 33.6ZM12.601 4.20001V29.4H37.801V4.20001H12.601ZM25.201 25.2H16.801V21H25.201V25.2ZM33.601 18.9H16.801V14.7H33.601V18.9ZM33.601 12.6H16.801V8.40002H33.601V12.6Z" fill="white"/>
</svg>