<svg width="48" height="48" viewBox="0 0 48 48" fill="none" xmlns="http://www.w3.org/2000/svg">
<path d="M20.939 0C25.0803 0 29.1287 1.22805 32.5721 3.52885C36.0155 5.82966 38.6993 9.09989 40.2841 12.926C41.8689 16.7521 42.2836 20.9622 41.4757 25.024C40.6677 29.0858 38.6735 32.8167 35.7451 35.7451C32.8167 38.6735 29.0858 40.6677 25.024 41.4757C20.9622 42.2836 16.7521 41.8689 12.926 40.2841C9.09989 38.6993 5.82966 36.0155 3.52885 32.5721C1.22805 29.1287 0 25.0803 0 20.939C0.00212027 15.3863 2.20887 10.0616 6.13523 6.13523C10.0616 2.20887 15.3863 0.00212027 20.939 0ZM20.939 37.225C24.1601 37.225 27.3088 36.2698 29.987 34.4803C32.6652 32.6908 34.7527 30.1473 35.9853 27.1714C37.218 24.1955 37.5405 20.9209 36.9121 17.7618C36.2837 14.6026 34.7326 11.7007 32.4549 9.42306C30.1773 7.14542 27.2754 5.59433 24.1162 4.96593C20.9571 4.33754 17.6825 4.66005 14.7066 5.8927C11.7307 7.12535 9.18722 9.21276 7.39769 11.891C5.60816 14.5692 4.653 17.7179 4.653 20.939C4.65247 23.0779 5.07336 25.1959 5.89162 27.172C6.70989 29.1482 7.90949 30.9437 9.42189 32.4561C10.9343 33.9685 12.7298 35.1681 14.706 35.9864C16.6821 36.8046 18.8001 37.2255 20.939 37.225ZM40.681 37.39L47.262 43.97L43.972 47.261L37.392 40.681L40.681 37.39Z" fill="white"/>
</svg>
