
<svg width="47" height="47" viewBox="0 0 47 47" fill="none" xmlns="http://www.w3.org/2000/svg">
<path d="M41.779 47H5.22202C3.83711 46.9984 2.50939 46.4476 1.5302 45.4683C0.551018 44.4889 0.000346788 43.1608 -0.000976562 41.7759V5.22021C0.00114109 3.83592 0.552197 2.50884 1.53133 1.53027C2.51046 0.551706 3.83772 0.00132231 5.22202 0H41.779C43.163 0.001588 44.4898 0.552166 45.4684 1.53076C46.447 2.50936 46.9974 3.83627 46.999 5.22021V41.7759C46.998 43.1604 46.4478 44.4879 45.4692 45.4673C44.4906 46.4466 43.1635 46.9979 41.779 47ZM5.22202 5.22412V41.7769H41.779V5.22412H5.22202ZM18.251 36.5552L7.81002 26.1401L11.517 22.459L18.253 29.1689L35.46 11.9619L39.144 15.6689L18.254 36.5552H18.251Z" fill="white"/>
</svg>
