<svg width="33" height="33" viewBox="0 0 33 33" fill="none" xmlns="http://www.w3.org/2000/svg">
<path d="M16.0049 32.506L11.3219 27.8231H4.68594V21.1881L0.00195312 16.504L4.68594 11.8199V5.18396H11.3219L16.006 0.500122L20.6899 5.18396H27.3269V11.8199L32.011 16.504L27.3269 21.1881V27.8231H20.6899L16.011 32.506H16.0049ZM12.4959 24.9921L16.0049 28.5021L19.515 24.9921H24.4959V20.006L28.0049 16.4969L24.4959 12.9869V8.00598H19.511L16.0009 4.49597L12.4919 8.00598H7.51096V12.9869L4.00095 16.4969L7.51096 20.006V24.9869L12.4959 24.9921ZM16.0049 24.285C14.4656 24.285 12.9608 23.8285 11.6809 22.9733C10.401 22.1181 9.40347 20.9025 8.81439 19.4803C8.22532 18.0582 8.07118 16.4933 8.37149 14.9835C8.6718 13.4738 9.41305 12.0871 10.5015 10.9987C11.59 9.91018 12.9768 9.16884 14.4865 8.86853C15.9963 8.56822 17.5612 8.72232 18.9834 9.3114C20.4055 9.90048 21.621 10.8982 22.4763 12.1781C23.3315 13.458 23.7879 14.9627 23.7879 16.5021C23.7853 18.5653 22.9644 20.5431 21.5053 22.0018C20.0462 23.4605 18.0681 24.281 16.0049 24.2831V24.285ZM16.0049 11.549C15.0253 11.549 14.0677 11.8394 13.2532 12.3837C12.4387 12.9279 11.8038 13.7015 11.429 14.6066C11.0541 15.5116 10.956 16.5076 11.1471 17.4684C11.3382 18.4292 11.81 19.3116 12.5027 20.0043C13.1953 20.697 14.0779 21.1686 15.0387 21.3597C15.9995 21.5509 16.9953 21.4529 17.9004 21.078C18.8054 20.7031 19.579 20.0683 20.1232 19.2538C20.6674 18.4393 20.9579 17.4817 20.9579 16.5021C20.9569 15.1886 20.4348 13.9291 19.5062 13.0001C18.5776 12.0712 17.3184 11.5486 16.0049 11.547V11.549Z" fill="#EA3434"/>
</svg>
