<svg width="24" height="26" viewBox="0 0 24 26" fill="none" xmlns="http://www.w3.org/2000/svg">
<path d="M19.3328 25.347C18.3864 25.3459 17.4791 24.9694 16.81 24.3001C16.1409 23.6308 15.7646 22.7231 15.7638 21.7767C15.7658 21.509 15.7994 21.2425 15.8638 20.9827L7.16382 15.8987C6.64187 16.3874 5.98847 16.7127 5.284 16.8348C4.57953 16.9569 3.85474 16.8707 3.19879 16.5862C2.54284 16.3018 1.98435 15.8314 1.59204 15.2337C1.19973 14.636 0.990723 13.9369 0.990723 13.222C0.990723 12.507 1.19973 11.8075 1.59204 11.2098C1.98435 10.612 2.54284 10.1422 3.19879 9.85771C3.85474 9.57326 4.57953 9.48658 5.284 9.60869C5.98847 9.7308 6.64187 10.0561 7.16382 10.5447L15.7798 5.52275C15.7126 5.24184 15.6757 4.9546 15.6698 4.66582C15.6647 3.81674 15.9525 2.99191 16.4848 2.33037C17.0171 1.66883 17.7612 1.2112 18.5917 1.03447C19.4222 0.857746 20.2883 0.972649 21.0438 1.36015C21.7993 1.74766 22.3981 2.38382 22.7391 3.16142C23.0801 3.93903 23.1425 4.81045 22.9158 5.62871C22.6891 6.44697 22.1871 7.1619 21.4945 7.65312C20.8019 8.14434 19.9612 8.38205 19.114 8.32549C18.2667 8.26892 17.4649 7.92151 16.8438 7.34258L8.22681 12.368C8.37346 12.9289 8.37346 13.518 8.22681 14.0789L16.9418 19.1507C17.3702 18.7609 17.8871 18.4813 18.4478 18.3362C19.0084 18.1912 19.5961 18.185 20.1597 18.3182C20.7234 18.4513 21.2461 18.7198 21.6826 19.1004C22.1192 19.481 22.4563 19.9625 22.665 20.5027C22.8737 21.043 22.9476 21.6257 22.8803 22.201C22.813 22.7762 22.6065 23.3265 22.2787 23.804C21.951 24.2815 21.5118 24.6717 20.9991 24.9412C20.4865 25.2108 19.9159 25.3515 19.3368 25.3509L19.3328 25.347ZM19.3328 20.5799C19.0911 20.5799 18.8549 20.6517 18.6539 20.7859C18.453 20.9202 18.2963 21.111 18.2039 21.3343C18.1114 21.5576 18.0871 21.8033 18.1343 22.0403C18.1814 22.2774 18.2978 22.4949 18.4688 22.6658C18.6397 22.8367 18.8574 22.9531 19.0944 23.0003C19.3315 23.0474 19.5772 23.0234 19.8005 22.931C20.0238 22.8385 20.2146 22.6817 20.3489 22.4808C20.4832 22.2798 20.5548 22.0433 20.5548 21.8016C20.554 21.478 20.4251 21.1681 20.1963 20.9393C19.9675 20.7104 19.6574 20.5816 19.3338 20.5809L19.3328 20.5799ZM4.66681 12.0008C4.42512 12.0008 4.18887 12.0726 3.98792 12.2068C3.78696 12.3411 3.63033 12.5319 3.53784 12.7552C3.44535 12.9785 3.42117 13.2242 3.46832 13.4612C3.51547 13.6983 3.63183 13.9158 3.80273 14.0867C3.97363 14.2576 4.19136 14.374 4.42841 14.4212C4.66545 14.4683 4.91117 14.4443 5.13446 14.3519C5.35775 14.2594 5.54859 14.1026 5.68286 13.9017C5.81714 13.7007 5.88879 13.4646 5.88879 13.2229C5.88853 12.8989 5.75969 12.5883 5.53058 12.3592C5.30147 12.1301 4.99082 12.001 4.66681 12.0008ZM19.3338 3.44463C19.0921 3.44463 18.8559 3.51641 18.6549 3.65068C18.454 3.78496 18.2973 3.97573 18.2048 4.19902C18.1123 4.42231 18.0882 4.66803 18.1353 4.90508C18.1825 5.14212 18.2988 5.36015 18.4697 5.53105C18.6406 5.70195 18.8584 5.81838 19.0954 5.86553C19.3324 5.91268 19.5782 5.88819 19.8015 5.7957C20.0247 5.70321 20.2156 5.54646 20.3499 5.34551C20.4841 5.14455 20.5558 4.90848 20.5558 4.6668C20.5551 4.34304 20.426 4.03284 20.197 3.804C19.9679 3.57516 19.6576 3.44516 19.3338 3.44463Z" fill="#EA3434"/>
</svg>
