<svg width="42" height="47" viewBox="0 0 42 47" fill="none" xmlns="http://www.w3.org/2000/svg">
<path d="M3.50802 2.03799C3.57845 1.47527 3.85196 0.957646 4.27714 0.582367C4.70232 0.207087 5.24991 -3.85244e-06 5.81702 0H36.062C36.6291 -3.85244e-06 37.1767 0.207087 37.6019 0.582367C38.0271 0.957646 38.3006 1.47527 38.371 2.03799L41.861 29.957C41.873 30.0532 41.879 30.1501 41.879 30.247V44.206C41.8789 44.5114 41.8186 44.8139 41.7016 45.096C41.5846 45.3782 41.4131 45.6345 41.197 45.8504C40.981 46.0663 40.7245 46.2376 40.4422 46.3543C40.16 46.4711 39.8575 46.5311 39.552 46.531H2.32602C2.02057 46.5311 1.71808 46.4711 1.43583 46.3543C1.15357 46.2376 0.897082 46.0663 0.681 45.8504C0.464918 45.6345 0.293476 45.3782 0.176462 45.096C0.0594484 44.8139 -0.000845269 44.5114 -0.000976562 44.206V30.25C-0.000948752 30.1531 0.00506233 30.0562 0.0170231 29.96L3.50802 2.03799ZM7.87102 4.65302L4.96302 27.919H36.916L34.008 4.64999L7.87102 4.65302ZM37.226 32.572H4.65302V41.879H37.225L37.226 32.572ZM27.92 34.899H32.573V39.55H27.919L27.92 34.899ZM23.267 34.899H18.612V39.55H23.265L23.267 34.899Z" fill="white"/>
</svg>
