<svg xmlns="http://www.w3.org/2000/svg" width="51" height="42" viewBox="0 0 51 42" fill="none">
    <path d="M46.364 42H4.63801C3.40463 41.995 2.22364 41.5009 1.35413 40.6261C0.484626 39.7513 -0.00238509 38.5674 8.78359e-06 37.334V4.66602C-0.00238509 3.43263 0.484626 2.24866 1.35413 1.3739C2.22364 0.499143 3.40463 0.00502976 4.63801 0H46.365C47.5979 0.00555813 48.7784 0.499904 49.6473 1.37463C50.5162 2.24936 51.0027 3.43307 51 4.66602V37.334C51.0027 38.5671 50.5161 39.7509 49.6469 40.6257C48.7778 41.5004 47.5971 41.9947 46.364 42ZM4.63703 4.66602V37.334H46.364V4.66602H4.63703ZM44.046 35H23.183V21H44.046V35Z" fill="white"/>
</svg>