<svg width="125" height="125" viewBox="0 0 125 125" fill="none" xmlns="http://www.w3.org/2000/svg">
<path d="M103 25.53H21V99.53H103V25.53Z" fill="white"/>
<path fill-rule="evenodd" clip-rule="evenodd" d="M14.968 0C10.9982 0 7.19108 1.57699 4.38403 4.38403C1.57699 7.19108 0 10.9983 0 14.968V109.768C0 113.738 1.57699 117.545 4.38403 120.352C7.19108 123.159 10.9982 124.736 14.968 124.736H109.768C113.738 124.736 117.545 123.159 120.352 120.352C123.159 117.545 124.736 113.738 124.736 109.768V14.968C124.736 10.9983 123.159 7.19108 120.352 4.38403C117.545 1.57699 113.738 0 109.768 0H14.968ZM80.891 38.874C80.1912 38.7308 79.4783 38.6618 78.764 38.668H46.178C45.4639 38.6664 44.7515 38.7354 44.051 38.874C43.7103 38.9426 43.3877 39.0818 43.104 39.2826C42.8204 39.4834 42.5819 39.7414 42.404 40.04C41.9113 40.9902 41.6974 42.0604 41.787 43.127C41.705 44.2154 41.9182 45.3057 42.404 46.283C42.7915 46.8604 43.3776 47.2753 44.051 47.449C44.7515 47.5876 45.464 47.6567 46.178 47.655H57.36V81.546C57.3586 82.3963 57.4275 83.2451 57.566 84.084C57.6388 84.4764 57.7919 84.8496 58.0156 85.1801C58.2393 85.5107 58.5288 85.7915 58.866 86.005C59.9739 86.5436 61.2044 86.7802 62.433 86.691C63.6623 86.7913 64.8956 86.5541 66 86.005C66.3372 85.7915 66.6267 85.5107 66.8504 85.1801C67.0741 84.8496 67.2272 84.4764 67.3 84.084C67.4863 83.274 67.5783 82.4452 67.574 81.614V47.654H78.619C79.3573 47.6581 80.0943 47.5891 80.819 47.448C81.1597 47.3794 81.4823 47.2402 81.766 47.0394C82.0496 46.8386 82.2881 46.5806 82.466 46.282C82.918 45.3034 83.1521 44.2384 83.1521 43.1605C83.1521 42.0826 82.918 41.0176 82.466 40.039C82.2969 39.7478 82.0701 39.4942 81.7994 39.2938C81.5287 39.0935 81.2199 38.9507 80.892 38.874H80.891Z" fill="#6F8BB5"/>
</svg>
