<svg xmlns="http://www.w3.org/2000/svg" width="53" height="43" viewBox="0 0 53 43" fill="none">
    <path d="M47.7 43.0001H5.29999C3.90118 43.0049 2.55763 42.4546 1.56403 41.47C0.570426 40.4854 0.0079366 39.1469 0 37.7481V6.24808C0.0082005 4.84955 0.570792 3.51142 1.56439 2.5272C2.55799 1.54297 3.90145 0.993026 5.29999 0.998081H47.7C49.0986 0.993026 50.442 1.54297 51.4356 2.5272C52.4292 3.51142 52.9918 4.84955 53 6.24808V37.7481C52.9921 39.1469 52.4296 40.4854 51.436 41.47C50.4424 42.4546 49.0988 43.0049 47.7 43.0001ZM5.29999 6.2501V37.7501H47.7V6.2501H5.29999ZM42.4 32.5001H37.1V27.2501H42.4V32.5001ZM31.8 32.5001H10.6V27.2501H31.8V32.5001ZM42.4 22.0001H21.2V16.7501H42.4V22.0001ZM15.9 22.0001H10.6V16.7501H15.9V22.0001Z" fill="white"/>
</svg>