<svg width="32" height="32" viewBox="0 0 32 32" fill="none" xmlns="http://www.w3.org/2000/svg">
<path d="M16 32C12.8355 32 9.74207 31.0616 7.11088 29.3035C4.47969 27.5454 2.42894 25.0467 1.21793 22.1231C0.0069325 19.1995 -0.309921 15.9824 0.307443 12.8787C0.924806 9.775 2.44865 6.92395 4.68629 4.68631C6.92393 2.44867 9.77485 0.924767 12.8785 0.307403C15.9822 -0.30996 19.1993 0.00704563 22.1229 1.21805C25.0466 2.42905 27.5454 4.47968 29.3035 7.11087C31.0616 9.74206 32 12.8355 32 16C31.995 20.242 30.3077 24.3086 27.3082 27.3081C24.3087 30.3076 20.2419 31.995 16 32ZM17.6 27.2V28.688C19.2113 28.4884 20.7698 27.9833 22.192 27.2H17.6ZM14.4 3.31204C11.3087 3.69996 8.46529 5.20315 6.40394 7.53934C4.34259 9.87552 3.20509 12.8839 3.20509 15.9995C3.20509 19.1151 4.34259 22.1236 6.40394 24.4597C8.46529 26.7959 11.3087 28.2991 14.4 28.687V3.31204ZM17.6 22.3999V24H25.985C26.3887 23.496 26.7521 22.9609 27.072 22.3999H17.6ZM17.6 17.6001V19.2H28.384C28.5161 18.6732 28.6162 18.139 28.684 17.6001H17.6ZM17.6 12.8001V14.3999H28.688C28.6204 13.861 28.5203 13.3269 28.388 12.8001H17.6ZM17.6 8.00003V9.60013H27.072C26.7527 9.03882 26.3892 8.50371 25.985 8.00003H17.6ZM17.6 3.31204V4.80008H22.192C20.7699 4.01646 19.2114 3.51139 17.6 3.31204Z" fill="#EA3434"/>
</svg>
