<svg width="31" height="31" viewBox="0 0 31 31" fill="none" xmlns="http://www.w3.org/2000/svg">
<path d="M15.5 -7.62939e-06C18.5656 -7.62939e-06 21.5624 0.909052 24.1113 2.61221C26.6603 4.31537 28.647 6.73615 29.8201 9.5684C30.9933 12.4007 31.3002 15.5172 30.7022 18.5239C30.1041 21.5306 28.6279 24.2924 26.4601 26.4601C24.2924 28.6279 21.5306 30.1041 18.5239 30.7022C15.5172 31.3002 12.4007 30.9933 9.5684 29.8201C6.73615 28.647 4.31537 26.6603 2.61221 24.1113C0.909052 21.5624 -7.62939e-06 18.5656 -7.62939e-06 15.5C0.00449181 11.3905 1.63897 7.45065 4.54481 4.54481C7.45065 1.63897 11.3905 0.00449181 15.5 -7.62939e-06ZM15.485 27.9C17.9375 27.9 20.3349 27.1727 22.3741 25.8102C24.4132 24.4477 26.0026 22.5111 26.9411 20.2453C27.8796 17.9795 28.1252 15.4862 27.6467 13.0809C27.1683 10.6755 25.9873 8.46604 24.2531 6.73187C22.5189 4.9977 20.3095 3.81671 17.9041 3.33825C15.4987 2.8598 13.0055 3.10536 10.7397 4.04389C8.47391 4.98241 6.5373 6.57175 5.17477 8.61092C3.81224 10.6501 3.08499 13.0475 3.08499 15.5C3.0887 18.7875 4.39631 21.9394 6.72096 24.264C9.04561 26.5887 12.1974 27.8963 15.485 27.9ZM13.935 7.74899L17.035 7.74899L17.035 10.849L13.935 10.849V7.74899ZM13.935 13.949L17.035 13.949V23.249H13.935L13.935 13.949Z" fill="#EA3434"/>
</svg>
