<svg width="125" height="125" viewBox="0 0 125 125" fill="none" xmlns="http://www.w3.org/2000/svg">
<path d="M103 26H21V100H103V26Z" fill="white"/>
<path fill-rule="evenodd" clip-rule="evenodd" d="M14.968 0C10.9982 0 7.19108 1.57698 4.38403 4.38403C1.57699 7.19107 0 10.9982 0 14.968V109.768C0 113.738 1.57699 117.545 4.38403 120.352C7.19108 123.159 10.9982 124.736 14.968 124.736H109.768C113.738 124.736 117.545 123.159 120.352 120.352C123.159 117.545 124.736 113.738 124.736 109.768V14.968C124.736 13.0024 124.349 11.056 123.597 9.23999C122.844 7.42399 121.742 5.77393 120.352 4.38403C118.962 2.99412 117.312 1.89158 115.496 1.13937C113.68 0.387159 111.734 0 109.768 0L14.968 0ZM46.668 86.166C47.5179 86.666 48.4963 86.9046 49.481 86.852C50.5193 86.9177 51.5519 86.6534 52.431 86.097C53.0885 85.6331 53.6288 85.0222 54.009 84.313C54.2371 83.9001 54.4212 83.4644 54.558 83.013L62.448 57.423L70.338 83.013C70.43 83.241 70.613 83.6743 70.887 84.313C71.2833 84.9917 71.8216 85.5767 72.465 86.028C73.3321 86.6171 74.3682 86.9062 75.415 86.851C76.4228 86.9209 77.4278 86.6815 78.296 86.165C78.8993 85.7958 79.396 85.2757 79.737 84.656C79.9747 84.2386 80.181 83.8041 80.354 83.356L93.254 45.966C93.5786 44.9694 93.7407 43.9271 93.734 42.879C93.7446 42.498 93.677 42.1188 93.5355 41.7648C93.3939 41.4109 93.1814 41.0897 92.911 40.821C92.068 40.1045 91.0877 39.5676 90.03 39.243C89.0084 38.8266 87.9079 38.6392 86.806 38.694C86.002 38.7756 85.2625 39.1708 84.748 39.794C84.1191 40.6378 83.6538 41.5919 83.376 42.607L74.869 68.128L67.597 42.812C67.4596 42.492 67.254 42.0347 66.98 41.44C66.634 40.7657 66.1127 40.1971 65.471 39.794C64.5225 39.2217 63.4198 38.9579 62.315 39.039C61.3083 38.9814 60.3067 39.2198 59.434 39.725C58.8085 40.1184 58.2901 40.6606 57.925 41.303C57.6831 41.8141 57.477 42.3414 57.308 42.881L50.108 67.991L41.532 42.538C41.2538 41.5098 40.7629 40.5515 40.091 39.725C39.8463 39.4331 39.5423 39.1965 39.1992 39.031C38.8562 38.8655 38.4818 38.7748 38.101 38.765C37.0477 38.7648 36.0027 38.9507 35.014 39.314C33.0473 39.954 31.8583 40.754 31.447 41.714C31.0357 42.6287 31.127 44.0467 31.721 45.968L44.621 83.358C44.713 83.586 44.896 83.9977 45.17 84.593C45.5325 85.2321 46.0466 85.7723 46.667 86.166H46.668Z" fill="#2684FF"/>
</svg>
